<mxfile host="Electron" modified="2023-09-04T13:27:15.098Z" agent="Mozilla/5.0 (X11; Linux x86_64) AppleWebKit/537.36 (KHTML, like Gecko) draw.io/21.6.8 Chrome/114.0.5735.289 Electron/25.5.0 Safari/537.36" etag="XXa-XiGH8slouoZPWRRi" version="21.6.8" type="device">
  <diagram name="Page-1" id="9f46799a-70d6-7492-0946-bef42562c5a5">
    <mxGraphModel dx="9620" dy="7015" grid="0" gridSize="10" guides="1" tooltips="1" connect="1" arrows="1" fold="1" page="0" pageScale="1" pageWidth="1100" pageHeight="850" background="none" math="0" shadow="1">
      <root>
        <mxCell id="0" />
        <mxCell id="1" parent="0" />
        <mxCell id="XSfuh442TB1WO7n0ML1V-26" value="&lt;font style=&quot;font-size: 36px;&quot;&gt;ADs&lt;/font&gt;" style="swimlane;whiteSpace=wrap;html=1;startSize=90;fillColor=#60a917;fontColor=#ffffff;strokeColor=#2D7600;strokeWidth=5;" parent="1" vertex="1">
          <mxGeometry x="-2580" y="-1910" width="450" height="460" as="geometry" />
        </mxCell>
        <mxCell id="SCAgchY4WZ-3knuSk4E6-48" value="&lt;font style=&quot;font-size: 20px;&quot;&gt;&lt;b&gt;ADs&lt;/b&gt;&lt;/font&gt;" style="swimlane;fontStyle=0;childLayout=stackLayout;horizontal=1;startSize=40;horizontalStack=0;resizeParent=1;resizeParentMax=0;resizeLast=0;collapsible=1;marginBottom=0;whiteSpace=wrap;html=1;fillColor=#a20025;fontColor=#ffffff;strokeColor=#6F0000;strokeWidth=3;" vertex="1" parent="XSfuh442TB1WO7n0ML1V-26">
          <mxGeometry x="110" y="140" width="200" height="250" as="geometry">
            <mxRectangle x="180" y="160" width="60" height="30" as="alternateBounds" />
          </mxGeometry>
        </mxCell>
        <mxCell id="SCAgchY4WZ-3knuSk4E6-49" value="&lt;font style=&quot;font-size: 16px;&quot;&gt;ID&lt;/font&gt;" style="text;strokeColor=none;fillColor=none;align=left;verticalAlign=middle;spacingLeft=4;spacingRight=4;overflow=hidden;points=[[0,0.5],[1,0.5]];portConstraint=eastwest;rotatable=0;whiteSpace=wrap;html=1;" vertex="1" parent="SCAgchY4WZ-3knuSk4E6-48">
          <mxGeometry y="40" width="200" height="30" as="geometry" />
        </mxCell>
        <mxCell id="SCAgchY4WZ-3knuSk4E6-55" value="&lt;font style=&quot;font-size: 16px;&quot;&gt;Title&lt;/font&gt;" style="text;strokeColor=none;fillColor=none;align=left;verticalAlign=middle;spacingLeft=4;spacingRight=4;overflow=hidden;points=[[0,0.5],[1,0.5]];portConstraint=eastwest;rotatable=0;whiteSpace=wrap;html=1;" vertex="1" parent="SCAgchY4WZ-3knuSk4E6-48">
          <mxGeometry y="70" width="200" height="30" as="geometry" />
        </mxCell>
        <mxCell id="SCAgchY4WZ-3knuSk4E6-50" value="&lt;font style=&quot;font-size: 16px;&quot;&gt;Description&lt;/font&gt;" style="text;strokeColor=none;fillColor=none;align=left;verticalAlign=middle;spacingLeft=4;spacingRight=4;overflow=hidden;points=[[0,0.5],[1,0.5]];portConstraint=eastwest;rotatable=0;whiteSpace=wrap;html=1;" vertex="1" parent="SCAgchY4WZ-3knuSk4E6-48">
          <mxGeometry y="100" width="200" height="30" as="geometry" />
        </mxCell>
        <mxCell id="SCAgchY4WZ-3knuSk4E6-56" value="&lt;font style=&quot;font-size: 16px;&quot;&gt;Date&lt;/font&gt;" style="text;strokeColor=none;fillColor=none;align=left;verticalAlign=middle;spacingLeft=4;spacingRight=4;overflow=hidden;points=[[0,0.5],[1,0.5]];portConstraint=eastwest;rotatable=0;whiteSpace=wrap;html=1;" vertex="1" parent="SCAgchY4WZ-3knuSk4E6-48">
          <mxGeometry y="130" width="200" height="30" as="geometry" />
        </mxCell>
        <mxCell id="SCAgchY4WZ-3knuSk4E6-52" value="&lt;font style=&quot;font-size: 16px;&quot;&gt;Expire Date&lt;/font&gt;" style="text;strokeColor=none;fillColor=none;align=left;verticalAlign=middle;spacingLeft=4;spacingRight=4;overflow=hidden;points=[[0,0.5],[1,0.5]];portConstraint=eastwest;rotatable=0;whiteSpace=wrap;html=1;" vertex="1" parent="SCAgchY4WZ-3knuSk4E6-48">
          <mxGeometry y="160" width="200" height="30" as="geometry" />
        </mxCell>
        <mxCell id="SCAgchY4WZ-3knuSk4E6-53" value="&lt;font style=&quot;font-size: 16px;&quot;&gt;Image&lt;/font&gt;" style="text;strokeColor=none;fillColor=none;align=left;verticalAlign=middle;spacingLeft=4;spacingRight=4;overflow=hidden;points=[[0,0.5],[1,0.5]];portConstraint=eastwest;rotatable=0;whiteSpace=wrap;html=1;" vertex="1" parent="SCAgchY4WZ-3knuSk4E6-48">
          <mxGeometry y="190" width="200" height="30" as="geometry" />
        </mxCell>
        <mxCell id="SCAgchY4WZ-3knuSk4E6-54" value="&lt;font style=&quot;font-size: 16px;&quot;&gt;Visiualize Status&lt;/font&gt;" style="text;strokeColor=none;fillColor=none;align=left;verticalAlign=middle;spacingLeft=4;spacingRight=4;overflow=hidden;points=[[0,0.5],[1,0.5]];portConstraint=eastwest;rotatable=0;whiteSpace=wrap;html=1;" vertex="1" parent="SCAgchY4WZ-3knuSk4E6-48">
          <mxGeometry y="220" width="200" height="30" as="geometry" />
        </mxCell>
        <mxCell id="XSfuh442TB1WO7n0ML1V-27" value="&lt;font style=&quot;font-size: 36px;&quot;&gt;Product&lt;/font&gt;" style="swimlane;whiteSpace=wrap;html=1;startSize=130;fillColor=#60a917;fontColor=#ffffff;strokeColor=#2D7600;strokeWidth=5;" parent="1" vertex="1">
          <mxGeometry x="-360" y="-2580" width="1310" height="900" as="geometry" />
        </mxCell>
        <mxCell id="SCAgchY4WZ-3knuSk4E6-77" value="&lt;font style=&quot;font-size: 20px;&quot;&gt;&lt;b&gt;Product&lt;/b&gt;&lt;/font&gt;" style="swimlane;fontStyle=0;childLayout=stackLayout;horizontal=1;startSize=60;horizontalStack=0;resizeParent=1;resizeParentMax=0;resizeLast=0;collapsible=1;marginBottom=0;whiteSpace=wrap;html=1;fillColor=#a20025;fontColor=#ffffff;strokeColor=#6F0000;strokeWidth=3;" vertex="1" parent="XSfuh442TB1WO7n0ML1V-27">
          <mxGeometry x="170" y="180" width="320" height="300" as="geometry" />
        </mxCell>
        <mxCell id="SCAgchY4WZ-3knuSk4E6-78" value="&lt;font style=&quot;font-size: 16px;&quot;&gt;ID&lt;/font&gt;" style="text;strokeColor=none;fillColor=none;align=left;verticalAlign=middle;spacingLeft=4;spacingRight=4;overflow=hidden;points=[[0,0.5],[1,0.5]];portConstraint=eastwest;rotatable=0;whiteSpace=wrap;html=1;" vertex="1" parent="SCAgchY4WZ-3knuSk4E6-77">
          <mxGeometry y="60" width="320" height="30" as="geometry" />
        </mxCell>
        <mxCell id="SCAgchY4WZ-3knuSk4E6-79" value="&lt;font style=&quot;font-size: 16px;&quot;&gt;Title&lt;/font&gt;" style="text;strokeColor=none;fillColor=none;align=left;verticalAlign=middle;spacingLeft=4;spacingRight=4;overflow=hidden;points=[[0,0.5],[1,0.5]];portConstraint=eastwest;rotatable=0;whiteSpace=wrap;html=1;" vertex="1" parent="SCAgchY4WZ-3knuSk4E6-77">
          <mxGeometry y="90" width="320" height="30" as="geometry" />
        </mxCell>
        <mxCell id="SCAgchY4WZ-3knuSk4E6-81" value="&lt;font style=&quot;font-size: 16px;&quot;&gt;Description&lt;/font&gt;" style="text;strokeColor=none;fillColor=none;align=left;verticalAlign=middle;spacingLeft=4;spacingRight=4;overflow=hidden;points=[[0,0.5],[1,0.5]];portConstraint=eastwest;rotatable=0;whiteSpace=wrap;html=1;" vertex="1" parent="SCAgchY4WZ-3knuSk4E6-77">
          <mxGeometry y="120" width="320" height="30" as="geometry" />
        </mxCell>
        <mxCell id="SCAgchY4WZ-3knuSk4E6-82" value="&lt;font style=&quot;font-size: 16px;&quot;&gt;Price&lt;/font&gt;" style="text;strokeColor=none;fillColor=none;align=left;verticalAlign=middle;spacingLeft=4;spacingRight=4;overflow=hidden;points=[[0,0.5],[1,0.5]];portConstraint=eastwest;rotatable=0;whiteSpace=wrap;html=1;" vertex="1" parent="SCAgchY4WZ-3knuSk4E6-77">
          <mxGeometry y="150" width="320" height="30" as="geometry" />
        </mxCell>
        <mxCell id="SCAgchY4WZ-3knuSk4E6-83" value="&lt;font style=&quot;font-size: 16px;&quot;&gt;Image&lt;/font&gt;" style="text;strokeColor=none;fillColor=none;align=left;verticalAlign=middle;spacingLeft=4;spacingRight=4;overflow=hidden;points=[[0,0.5],[1,0.5]];portConstraint=eastwest;rotatable=0;whiteSpace=wrap;html=1;" vertex="1" parent="SCAgchY4WZ-3knuSk4E6-77">
          <mxGeometry y="180" width="320" height="30" as="geometry" />
        </mxCell>
        <mxCell id="SCAgchY4WZ-3knuSk4E6-173" value="&lt;font style=&quot;font-size: 16px;&quot;&gt;Visualize Status&lt;/font&gt;" style="text;strokeColor=none;fillColor=none;align=left;verticalAlign=middle;spacingLeft=4;spacingRight=4;overflow=hidden;points=[[0,0.5],[1,0.5]];portConstraint=eastwest;rotatable=0;whiteSpace=wrap;html=1;" vertex="1" parent="SCAgchY4WZ-3knuSk4E6-77">
          <mxGeometry y="210" width="320" height="30" as="geometry" />
        </mxCell>
        <mxCell id="SCAgchY4WZ-3knuSk4E6-174" value="&lt;font style=&quot;font-size: 16px;&quot;&gt;Category Root -&amp;gt; ( Foreign Key )&lt;/font&gt;" style="text;strokeColor=none;fillColor=none;align=left;verticalAlign=middle;spacingLeft=4;spacingRight=4;overflow=hidden;points=[[0,0.5],[1,0.5]];portConstraint=eastwest;rotatable=0;whiteSpace=wrap;html=1;" vertex="1" parent="SCAgchY4WZ-3knuSk4E6-77">
          <mxGeometry y="240" width="320" height="30" as="geometry" />
        </mxCell>
        <mxCell id="SCAgchY4WZ-3knuSk4E6-84" value="&lt;font style=&quot;font-size: 16px;&quot;&gt;Category Sub Root -&amp;gt; ( Foreign Key )&lt;/font&gt;" style="text;strokeColor=none;fillColor=none;align=left;verticalAlign=middle;spacingLeft=4;spacingRight=4;overflow=hidden;points=[[0,0.5],[1,0.5]];portConstraint=eastwest;rotatable=0;whiteSpace=wrap;html=1;" vertex="1" parent="SCAgchY4WZ-3knuSk4E6-77">
          <mxGeometry y="270" width="320" height="30" as="geometry" />
        </mxCell>
        <mxCell id="SCAgchY4WZ-3knuSk4E6-147" value="&lt;font style=&quot;font-size: 20px;&quot;&gt;&lt;b&gt;Size&lt;/b&gt;&lt;/font&gt;" style="swimlane;fontStyle=0;childLayout=stackLayout;horizontal=1;startSize=70;horizontalStack=0;resizeParent=1;resizeParentMax=0;resizeLast=0;collapsible=1;marginBottom=0;whiteSpace=wrap;html=1;fillColor=#a20025;fontColor=#ffffff;strokeColor=#6F0000;strokeWidth=3;" vertex="1" parent="XSfuh442TB1WO7n0ML1V-27">
          <mxGeometry x="940" y="580" width="250" height="220" as="geometry" />
        </mxCell>
        <mxCell id="SCAgchY4WZ-3knuSk4E6-148" value="&lt;font style=&quot;font-size: 16px;&quot;&gt;ID&lt;/font&gt;" style="text;strokeColor=none;fillColor=none;align=left;verticalAlign=middle;spacingLeft=4;spacingRight=4;overflow=hidden;points=[[0,0.5],[1,0.5]];portConstraint=eastwest;rotatable=0;whiteSpace=wrap;html=1;" vertex="1" parent="SCAgchY4WZ-3knuSk4E6-147">
          <mxGeometry y="70" width="250" height="30" as="geometry" />
        </mxCell>
        <mxCell id="SCAgchY4WZ-3knuSk4E6-149" value="&lt;font style=&quot;font-size: 16px;&quot;&gt;Name&lt;/font&gt;" style="text;strokeColor=none;fillColor=none;align=left;verticalAlign=middle;spacingLeft=4;spacingRight=4;overflow=hidden;points=[[0,0.5],[1,0.5]];portConstraint=eastwest;rotatable=0;whiteSpace=wrap;html=1;" vertex="1" parent="SCAgchY4WZ-3knuSk4E6-147">
          <mxGeometry y="100" width="250" height="30" as="geometry" />
        </mxCell>
        <mxCell id="SCAgchY4WZ-3knuSk4E6-157" value="&lt;font style=&quot;font-size: 16px;&quot;&gt;Stock Number&lt;/font&gt;" style="text;strokeColor=none;fillColor=none;align=left;verticalAlign=middle;spacingLeft=4;spacingRight=4;overflow=hidden;points=[[0,0.5],[1,0.5]];portConstraint=eastwest;rotatable=0;whiteSpace=wrap;html=1;" vertex="1" parent="SCAgchY4WZ-3knuSk4E6-147">
          <mxGeometry y="130" width="250" height="30" as="geometry" />
        </mxCell>
        <mxCell id="SCAgchY4WZ-3knuSk4E6-158" value="&lt;font style=&quot;font-size: 16px;&quot;&gt;Status&lt;/font&gt;" style="text;strokeColor=none;fillColor=none;align=left;verticalAlign=middle;spacingLeft=4;spacingRight=4;overflow=hidden;points=[[0,0.5],[1,0.5]];portConstraint=eastwest;rotatable=0;whiteSpace=wrap;html=1;" vertex="1" parent="SCAgchY4WZ-3knuSk4E6-147">
          <mxGeometry y="160" width="250" height="30" as="geometry" />
        </mxCell>
        <mxCell id="SCAgchY4WZ-3knuSk4E6-150" value="&lt;font style=&quot;font-size: 16px;&quot;&gt;Color -&amp;gt; (Foreign Key)&lt;/font&gt;" style="text;strokeColor=none;fillColor=none;align=left;verticalAlign=middle;spacingLeft=4;spacingRight=4;overflow=hidden;points=[[0,0.5],[1,0.5]];portConstraint=eastwest;rotatable=0;whiteSpace=wrap;html=1;" vertex="1" parent="SCAgchY4WZ-3knuSk4E6-147">
          <mxGeometry y="190" width="250" height="30" as="geometry" />
        </mxCell>
        <mxCell id="SCAgchY4WZ-3knuSk4E6-151" value="&lt;font size=&quot;1&quot; style=&quot;&quot;&gt;&lt;b style=&quot;font-size: 20px;&quot;&gt;Color&lt;/b&gt;&lt;/font&gt;" style="swimlane;fontStyle=0;childLayout=stackLayout;horizontal=1;startSize=60;horizontalStack=0;resizeParent=1;resizeParentMax=0;resizeLast=0;collapsible=1;marginBottom=0;whiteSpace=wrap;html=1;fillColor=#a20025;fontColor=#ffffff;strokeColor=#6F0000;strokeWidth=3;" vertex="1" parent="XSfuh442TB1WO7n0ML1V-27">
          <mxGeometry x="760" y="230" width="270" height="150" as="geometry" />
        </mxCell>
        <mxCell id="SCAgchY4WZ-3knuSk4E6-152" value="&lt;font style=&quot;font-size: 16px;&quot;&gt;ID&lt;/font&gt;" style="text;strokeColor=none;fillColor=none;align=left;verticalAlign=middle;spacingLeft=4;spacingRight=4;overflow=hidden;points=[[0,0.5],[1,0.5]];portConstraint=eastwest;rotatable=0;whiteSpace=wrap;html=1;" vertex="1" parent="SCAgchY4WZ-3knuSk4E6-151">
          <mxGeometry y="60" width="270" height="30" as="geometry" />
        </mxCell>
        <mxCell id="SCAgchY4WZ-3knuSk4E6-153" value="&lt;font style=&quot;font-size: 16px;&quot;&gt;Color&lt;/font&gt;" style="text;strokeColor=none;fillColor=none;align=left;verticalAlign=middle;spacingLeft=4;spacingRight=4;overflow=hidden;points=[[0,0.5],[1,0.5]];portConstraint=eastwest;rotatable=0;whiteSpace=wrap;html=1;" vertex="1" parent="SCAgchY4WZ-3knuSk4E6-151">
          <mxGeometry y="90" width="270" height="30" as="geometry" />
        </mxCell>
        <mxCell id="SCAgchY4WZ-3knuSk4E6-154" value="&lt;font style=&quot;font-size: 16px;&quot;&gt;Product -&amp;gt; ( Foreign Key )&lt;/font&gt;" style="text;strokeColor=none;fillColor=none;align=left;verticalAlign=middle;spacingLeft=4;spacingRight=4;overflow=hidden;points=[[0,0.5],[1,0.5]];portConstraint=eastwest;rotatable=0;whiteSpace=wrap;html=1;" vertex="1" parent="SCAgchY4WZ-3knuSk4E6-151">
          <mxGeometry y="120" width="270" height="30" as="geometry" />
        </mxCell>
        <mxCell id="SCAgchY4WZ-3knuSk4E6-159" value="&lt;font style=&quot;font-size: 20px;&quot;&gt;&lt;b&gt;Product Images&lt;/b&gt;&lt;/font&gt;" style="swimlane;fontStyle=0;childLayout=stackLayout;horizontal=1;startSize=100;horizontalStack=0;resizeParent=1;resizeParentMax=0;resizeLast=0;collapsible=1;marginBottom=0;whiteSpace=wrap;html=1;strokeWidth=3;fillColor=#a20025;fontColor=#ffffff;strokeColor=#6F0000;" vertex="1" parent="XSfuh442TB1WO7n0ML1V-27">
          <mxGeometry x="270" y="600" width="230" height="220" as="geometry" />
        </mxCell>
        <mxCell id="SCAgchY4WZ-3knuSk4E6-160" value="&lt;font style=&quot;font-size: 16px;&quot;&gt;ID&lt;/font&gt;" style="text;strokeColor=none;fillColor=none;align=left;verticalAlign=middle;spacingLeft=4;spacingRight=4;overflow=hidden;points=[[0,0.5],[1,0.5]];portConstraint=eastwest;rotatable=0;whiteSpace=wrap;html=1;" vertex="1" parent="SCAgchY4WZ-3knuSk4E6-159">
          <mxGeometry y="100" width="230" height="30" as="geometry" />
        </mxCell>
        <mxCell id="SCAgchY4WZ-3knuSk4E6-161" value="&lt;font style=&quot;font-size: 16px;&quot;&gt;Image&lt;/font&gt;" style="text;strokeColor=none;fillColor=none;align=left;verticalAlign=middle;spacingLeft=4;spacingRight=4;overflow=hidden;points=[[0,0.5],[1,0.5]];portConstraint=eastwest;rotatable=0;whiteSpace=wrap;html=1;" vertex="1" parent="SCAgchY4WZ-3knuSk4E6-159">
          <mxGeometry y="130" width="230" height="30" as="geometry" />
        </mxCell>
        <mxCell id="SCAgchY4WZ-3knuSk4E6-163" value="&lt;font style=&quot;font-size: 16px;&quot;&gt;Visualize Status&lt;/font&gt;" style="text;strokeColor=none;fillColor=none;align=left;verticalAlign=middle;spacingLeft=4;spacingRight=4;overflow=hidden;points=[[0,0.5],[1,0.5]];portConstraint=eastwest;rotatable=0;whiteSpace=wrap;html=1;" vertex="1" parent="SCAgchY4WZ-3knuSk4E6-159">
          <mxGeometry y="160" width="230" height="30" as="geometry" />
        </mxCell>
        <mxCell id="SCAgchY4WZ-3knuSk4E6-162" value="&lt;font style=&quot;font-size: 16px;&quot;&gt;Product -&amp;gt; ( Foreign Key )&lt;/font&gt;" style="text;strokeColor=none;fillColor=none;align=left;verticalAlign=middle;spacingLeft=4;spacingRight=4;overflow=hidden;points=[[0,0.5],[1,0.5]];portConstraint=eastwest;rotatable=0;whiteSpace=wrap;html=1;" vertex="1" parent="SCAgchY4WZ-3knuSk4E6-159">
          <mxGeometry y="190" width="230" height="30" as="geometry" />
        </mxCell>
        <mxCell id="SCAgchY4WZ-3knuSk4E6-218" style="edgeStyle=orthogonalEdgeStyle;rounded=0;orthogonalLoop=1;jettySize=auto;html=1;exitX=0;exitY=0.5;exitDx=0;exitDy=0;entryX=0;entryY=0.5;entryDx=0;entryDy=0;" edge="1" parent="XSfuh442TB1WO7n0ML1V-27" source="SCAgchY4WZ-3knuSk4E6-78" target="SCAgchY4WZ-3knuSk4E6-162">
          <mxGeometry relative="1" as="geometry" />
        </mxCell>
        <mxCell id="SCAgchY4WZ-3knuSk4E6-222" style="edgeStyle=orthogonalEdgeStyle;rounded=0;orthogonalLoop=1;jettySize=auto;html=1;exitX=1;exitY=0.5;exitDx=0;exitDy=0;entryX=0;entryY=0.5;entryDx=0;entryDy=0;" edge="1" parent="XSfuh442TB1WO7n0ML1V-27" source="SCAgchY4WZ-3knuSk4E6-78" target="SCAgchY4WZ-3knuSk4E6-154">
          <mxGeometry relative="1" as="geometry" />
        </mxCell>
        <mxCell id="SCAgchY4WZ-3knuSk4E6-223" style="edgeStyle=orthogonalEdgeStyle;rounded=0;orthogonalLoop=1;jettySize=auto;html=1;exitX=1;exitY=0.5;exitDx=0;exitDy=0;entryX=1;entryY=0.5;entryDx=0;entryDy=0;" edge="1" parent="XSfuh442TB1WO7n0ML1V-27" source="SCAgchY4WZ-3knuSk4E6-154" target="SCAgchY4WZ-3knuSk4E6-150">
          <mxGeometry relative="1" as="geometry" />
        </mxCell>
        <mxCell id="XSfuh442TB1WO7n0ML1V-28" value="&lt;font style=&quot;font-size: 36px;&quot;&gt;Core&lt;/font&gt;" style="swimlane;whiteSpace=wrap;html=1;startSize=120;fillColor=#60a917;fontColor=#ffffff;strokeColor=#2D7600;strokeWidth=5;" parent="1" vertex="1">
          <mxGeometry x="-1710" y="-2220" width="930" height="1150" as="geometry" />
        </mxCell>
        <mxCell id="SCAgchY4WZ-3knuSk4E6-57" value="&lt;font style=&quot;font-size: 20px;&quot;&gt;&lt;b&gt;User&lt;/b&gt;&lt;/font&gt;" style="swimlane;fontStyle=0;childLayout=stackLayout;horizontal=1;startSize=80;horizontalStack=0;resizeParent=1;resizeParentMax=0;resizeLast=0;collapsible=1;marginBottom=0;whiteSpace=wrap;html=1;fillColor=#a20025;fontColor=#ffffff;strokeColor=#6F0000;strokeWidth=3;" vertex="1" parent="XSfuh442TB1WO7n0ML1V-28">
          <mxGeometry x="60" y="190" width="240" height="290" as="geometry" />
        </mxCell>
        <mxCell id="SCAgchY4WZ-3knuSk4E6-58" value="&lt;font style=&quot;font-size: 16px;&quot;&gt;UserName&lt;/font&gt;" style="text;strokeColor=none;fillColor=none;align=left;verticalAlign=middle;spacingLeft=4;spacingRight=4;overflow=hidden;points=[[0,0.5],[1,0.5]];portConstraint=eastwest;rotatable=0;whiteSpace=wrap;html=1;" vertex="1" parent="SCAgchY4WZ-3knuSk4E6-57">
          <mxGeometry y="80" width="240" height="30" as="geometry" />
        </mxCell>
        <mxCell id="SCAgchY4WZ-3knuSk4E6-59" value="&lt;font style=&quot;font-size: 16px;&quot;&gt;Name&lt;/font&gt;" style="text;strokeColor=none;fillColor=none;align=left;verticalAlign=middle;spacingLeft=4;spacingRight=4;overflow=hidden;points=[[0,0.5],[1,0.5]];portConstraint=eastwest;rotatable=0;whiteSpace=wrap;html=1;" vertex="1" parent="SCAgchY4WZ-3knuSk4E6-57">
          <mxGeometry y="110" width="240" height="30" as="geometry" />
        </mxCell>
        <mxCell id="SCAgchY4WZ-3knuSk4E6-61" value="&lt;font style=&quot;font-size: 16px;&quot;&gt;LastName&lt;/font&gt;" style="text;strokeColor=none;fillColor=none;align=left;verticalAlign=middle;spacingLeft=4;spacingRight=4;overflow=hidden;points=[[0,0.5],[1,0.5]];portConstraint=eastwest;rotatable=0;whiteSpace=wrap;html=1;" vertex="1" parent="SCAgchY4WZ-3knuSk4E6-57">
          <mxGeometry y="140" width="240" height="30" as="geometry" />
        </mxCell>
        <mxCell id="SCAgchY4WZ-3knuSk4E6-62" value="&lt;font style=&quot;font-size: 16px;&quot;&gt;Data of Birth&lt;/font&gt;" style="text;strokeColor=none;fillColor=none;align=left;verticalAlign=middle;spacingLeft=4;spacingRight=4;overflow=hidden;points=[[0,0.5],[1,0.5]];portConstraint=eastwest;rotatable=0;whiteSpace=wrap;html=1;" vertex="1" parent="SCAgchY4WZ-3knuSk4E6-57">
          <mxGeometry y="170" width="240" height="30" as="geometry" />
        </mxCell>
        <mxCell id="SCAgchY4WZ-3knuSk4E6-63" value="&lt;font style=&quot;font-size: 16px;&quot;&gt;Joined Date&lt;/font&gt;" style="text;strokeColor=none;fillColor=none;align=left;verticalAlign=middle;spacingLeft=4;spacingRight=4;overflow=hidden;points=[[0,0.5],[1,0.5]];portConstraint=eastwest;rotatable=0;whiteSpace=wrap;html=1;" vertex="1" parent="SCAgchY4WZ-3knuSk4E6-57">
          <mxGeometry y="200" width="240" height="30" as="geometry" />
        </mxCell>
        <mxCell id="SCAgchY4WZ-3knuSk4E6-64" value="&lt;font style=&quot;font-size: 16px;&quot;&gt;Email&lt;/font&gt;" style="text;strokeColor=none;fillColor=none;align=left;verticalAlign=middle;spacingLeft=4;spacingRight=4;overflow=hidden;points=[[0,0.5],[1,0.5]];portConstraint=eastwest;rotatable=0;whiteSpace=wrap;html=1;" vertex="1" parent="SCAgchY4WZ-3knuSk4E6-57">
          <mxGeometry y="230" width="240" height="30" as="geometry" />
        </mxCell>
        <mxCell id="SCAgchY4WZ-3knuSk4E6-60" value="&lt;font style=&quot;font-size: 16px;&quot;&gt;User Type&lt;/font&gt;" style="text;strokeColor=none;fillColor=none;align=left;verticalAlign=middle;spacingLeft=4;spacingRight=4;overflow=hidden;points=[[0,0.5],[1,0.5]];portConstraint=eastwest;rotatable=0;whiteSpace=wrap;html=1;" vertex="1" parent="SCAgchY4WZ-3knuSk4E6-57">
          <mxGeometry y="260" width="240" height="30" as="geometry" />
        </mxCell>
        <mxCell id="SCAgchY4WZ-3knuSk4E6-66" value="&lt;font style=&quot;font-size: 20px;&quot;&gt;&lt;b&gt;User Product History&lt;/b&gt;&lt;/font&gt;" style="swimlane;fontStyle=0;childLayout=stackLayout;horizontal=1;startSize=60;horizontalStack=0;resizeParent=1;resizeParentMax=0;resizeLast=0;collapsible=1;marginBottom=0;whiteSpace=wrap;html=1;fillColor=#a20025;fontColor=#ffffff;strokeColor=#6F0000;strokeWidth=3;" vertex="1" parent="XSfuh442TB1WO7n0ML1V-28">
          <mxGeometry x="510" y="150" width="300" height="180" as="geometry" />
        </mxCell>
        <mxCell id="SCAgchY4WZ-3knuSk4E6-67" value="&lt;font style=&quot;font-size: 16px;&quot;&gt;ID&lt;/font&gt;" style="text;strokeColor=none;fillColor=none;align=left;verticalAlign=middle;spacingLeft=4;spacingRight=4;overflow=hidden;points=[[0,0.5],[1,0.5]];portConstraint=eastwest;rotatable=0;whiteSpace=wrap;html=1;" vertex="1" parent="SCAgchY4WZ-3knuSk4E6-66">
          <mxGeometry y="60" width="300" height="30" as="geometry" />
        </mxCell>
        <mxCell id="SCAgchY4WZ-3knuSk4E6-68" value="&lt;font style=&quot;font-size: 16px;&quot;&gt;Date&lt;/font&gt;" style="text;strokeColor=none;fillColor=none;align=left;verticalAlign=middle;spacingLeft=4;spacingRight=4;overflow=hidden;points=[[0,0.5],[1,0.5]];portConstraint=eastwest;rotatable=0;whiteSpace=wrap;html=1;" vertex="1" parent="SCAgchY4WZ-3knuSk4E6-66">
          <mxGeometry y="90" width="300" height="30" as="geometry" />
        </mxCell>
        <mxCell id="SCAgchY4WZ-3knuSk4E6-70" value="&lt;font style=&quot;font-size: 16px;&quot;&gt;User -&amp;gt; ForeignKey&lt;/font&gt;" style="text;strokeColor=none;fillColor=none;align=left;verticalAlign=middle;spacingLeft=4;spacingRight=4;overflow=hidden;points=[[0,0.5],[1,0.5]];portConstraint=eastwest;rotatable=0;whiteSpace=wrap;html=1;" vertex="1" parent="SCAgchY4WZ-3knuSk4E6-66">
          <mxGeometry y="120" width="300" height="30" as="geometry" />
        </mxCell>
        <mxCell id="SCAgchY4WZ-3knuSk4E6-69" value="&lt;font style=&quot;font-size: 16px;&quot;&gt;Product -&amp;gt; Foreign Key&lt;/font&gt;" style="text;strokeColor=none;fillColor=none;align=left;verticalAlign=middle;spacingLeft=4;spacingRight=4;overflow=hidden;points=[[0,0.5],[1,0.5]];portConstraint=eastwest;rotatable=0;whiteSpace=wrap;html=1;" vertex="1" parent="SCAgchY4WZ-3knuSk4E6-66">
          <mxGeometry y="150" width="300" height="30" as="geometry" />
        </mxCell>
        <mxCell id="SCAgchY4WZ-3knuSk4E6-71" value="&lt;b&gt;&lt;font style=&quot;font-size: 20px;&quot;&gt;Forgot Password&lt;/font&gt;&lt;/b&gt;" style="swimlane;fontStyle=0;childLayout=stackLayout;horizontal=1;startSize=70;horizontalStack=0;resizeParent=1;resizeParentMax=0;resizeLast=0;collapsible=1;marginBottom=0;whiteSpace=wrap;html=1;fillColor=#a20025;fontColor=#ffffff;strokeColor=#6F0000;strokeWidth=3;" vertex="1" parent="XSfuh442TB1WO7n0ML1V-28">
          <mxGeometry x="550" y="450" width="260" height="220" as="geometry" />
        </mxCell>
        <mxCell id="SCAgchY4WZ-3knuSk4E6-72" value="&lt;font style=&quot;font-size: 16px;&quot;&gt;ID&lt;/font&gt;" style="text;strokeColor=none;fillColor=none;align=left;verticalAlign=middle;spacingLeft=4;spacingRight=4;overflow=hidden;points=[[0,0.5],[1,0.5]];portConstraint=eastwest;rotatable=0;whiteSpace=wrap;html=1;" vertex="1" parent="SCAgchY4WZ-3knuSk4E6-71">
          <mxGeometry y="70" width="260" height="30" as="geometry" />
        </mxCell>
        <mxCell id="SCAgchY4WZ-3knuSk4E6-73" value="&lt;font style=&quot;font-size: 16px;&quot;&gt;Expire Time&lt;/font&gt;" style="text;strokeColor=none;fillColor=none;align=left;verticalAlign=middle;spacingLeft=4;spacingRight=4;overflow=hidden;points=[[0,0.5],[1,0.5]];portConstraint=eastwest;rotatable=0;whiteSpace=wrap;html=1;" vertex="1" parent="SCAgchY4WZ-3knuSk4E6-71">
          <mxGeometry y="100" width="260" height="30" as="geometry" />
        </mxCell>
        <mxCell id="SCAgchY4WZ-3knuSk4E6-75" value="&lt;font style=&quot;font-size: 16px;&quot;&gt;Code&lt;/font&gt;" style="text;strokeColor=none;fillColor=none;align=left;verticalAlign=middle;spacingLeft=4;spacingRight=4;overflow=hidden;points=[[0,0.5],[1,0.5]];portConstraint=eastwest;rotatable=0;whiteSpace=wrap;html=1;" vertex="1" parent="SCAgchY4WZ-3knuSk4E6-71">
          <mxGeometry y="130" width="260" height="30" as="geometry" />
        </mxCell>
        <mxCell id="SCAgchY4WZ-3knuSk4E6-74" value="&lt;font style=&quot;font-size: 16px;&quot;&gt;Status&lt;/font&gt;" style="text;strokeColor=none;fillColor=none;align=left;verticalAlign=middle;spacingLeft=4;spacingRight=4;overflow=hidden;points=[[0,0.5],[1,0.5]];portConstraint=eastwest;rotatable=0;whiteSpace=wrap;html=1;" vertex="1" parent="SCAgchY4WZ-3knuSk4E6-71">
          <mxGeometry y="160" width="260" height="30" as="geometry" />
        </mxCell>
        <mxCell id="SCAgchY4WZ-3knuSk4E6-76" value="&lt;font style=&quot;font-size: 16px;&quot;&gt;User -&amp;gt; (OneToOne)&lt;/font&gt;" style="text;strokeColor=none;fillColor=none;align=left;verticalAlign=middle;spacingLeft=4;spacingRight=4;overflow=hidden;points=[[0,0.5],[1,0.5]];portConstraint=eastwest;rotatable=0;whiteSpace=wrap;html=1;" vertex="1" parent="SCAgchY4WZ-3knuSk4E6-71">
          <mxGeometry y="190" width="260" height="30" as="geometry" />
        </mxCell>
        <mxCell id="SCAgchY4WZ-3knuSk4E6-197" value="&lt;font style=&quot;font-size: 20px;&quot;&gt;&lt;b&gt;Address&lt;/b&gt;&lt;/font&gt;" style="swimlane;fontStyle=0;childLayout=stackLayout;horizontal=1;startSize=90;horizontalStack=0;resizeParent=1;resizeParentMax=0;resizeLast=0;collapsible=1;marginBottom=0;whiteSpace=wrap;html=1;fillColor=#a20025;fontColor=#ffffff;strokeColor=#6F0000;strokeWidth=3;" vertex="1" parent="XSfuh442TB1WO7n0ML1V-28">
          <mxGeometry x="160" y="610" width="200" height="330" as="geometry" />
        </mxCell>
        <mxCell id="SCAgchY4WZ-3knuSk4E6-198" value="&lt;font style=&quot;font-size: 16px;&quot;&gt;ID&lt;/font&gt;" style="text;strokeColor=none;fillColor=none;align=left;verticalAlign=middle;spacingLeft=4;spacingRight=4;overflow=hidden;points=[[0,0.5],[1,0.5]];portConstraint=eastwest;rotatable=0;whiteSpace=wrap;html=1;" vertex="1" parent="SCAgchY4WZ-3knuSk4E6-197">
          <mxGeometry y="90" width="200" height="30" as="geometry" />
        </mxCell>
        <mxCell id="SCAgchY4WZ-3knuSk4E6-199" value="&lt;font style=&quot;font-size: 16px;&quot;&gt;Address&lt;/font&gt;" style="text;strokeColor=none;fillColor=none;align=left;verticalAlign=middle;spacingLeft=4;spacingRight=4;overflow=hidden;points=[[0,0.5],[1,0.5]];portConstraint=eastwest;rotatable=0;whiteSpace=wrap;html=1;" vertex="1" parent="SCAgchY4WZ-3knuSk4E6-197">
          <mxGeometry y="120" width="200" height="30" as="geometry" />
        </mxCell>
        <mxCell id="SCAgchY4WZ-3knuSk4E6-201" value="&lt;font style=&quot;font-size: 16px;&quot;&gt;Country&lt;/font&gt;" style="text;strokeColor=none;fillColor=none;align=left;verticalAlign=middle;spacingLeft=4;spacingRight=4;overflow=hidden;points=[[0,0.5],[1,0.5]];portConstraint=eastwest;rotatable=0;whiteSpace=wrap;html=1;" vertex="1" parent="SCAgchY4WZ-3knuSk4E6-197">
          <mxGeometry y="150" width="200" height="30" as="geometry" />
        </mxCell>
        <mxCell id="SCAgchY4WZ-3knuSk4E6-203" value="&lt;font style=&quot;font-size: 16px;&quot;&gt;City&lt;/font&gt;" style="text;strokeColor=none;fillColor=none;align=left;verticalAlign=middle;spacingLeft=4;spacingRight=4;overflow=hidden;points=[[0,0.5],[1,0.5]];portConstraint=eastwest;rotatable=0;whiteSpace=wrap;html=1;" vertex="1" parent="SCAgchY4WZ-3knuSk4E6-197">
          <mxGeometry y="180" width="200" height="30" as="geometry" />
        </mxCell>
        <mxCell id="SCAgchY4WZ-3knuSk4E6-204" value="&lt;font style=&quot;font-size: 16px;&quot;&gt;Phone Number&lt;/font&gt;" style="text;strokeColor=none;fillColor=none;align=left;verticalAlign=middle;spacingLeft=4;spacingRight=4;overflow=hidden;points=[[0,0.5],[1,0.5]];portConstraint=eastwest;rotatable=0;whiteSpace=wrap;html=1;" vertex="1" parent="SCAgchY4WZ-3knuSk4E6-197">
          <mxGeometry y="210" width="200" height="30" as="geometry" />
        </mxCell>
        <mxCell id="SCAgchY4WZ-3knuSk4E6-205" value="&lt;font style=&quot;font-size: 16px;&quot;&gt;Email Address&lt;/font&gt;" style="text;strokeColor=none;fillColor=none;align=left;verticalAlign=middle;spacingLeft=4;spacingRight=4;overflow=hidden;points=[[0,0.5],[1,0.5]];portConstraint=eastwest;rotatable=0;whiteSpace=wrap;html=1;" vertex="1" parent="SCAgchY4WZ-3knuSk4E6-197">
          <mxGeometry y="240" width="200" height="30" as="geometry" />
        </mxCell>
        <mxCell id="SCAgchY4WZ-3knuSk4E6-206" value="&lt;font style=&quot;font-size: 16px;&quot;&gt;Postal Code&lt;/font&gt;" style="text;strokeColor=none;fillColor=none;align=left;verticalAlign=middle;spacingLeft=4;spacingRight=4;overflow=hidden;points=[[0,0.5],[1,0.5]];portConstraint=eastwest;rotatable=0;whiteSpace=wrap;html=1;" vertex="1" parent="SCAgchY4WZ-3knuSk4E6-197">
          <mxGeometry y="270" width="200" height="30" as="geometry" />
        </mxCell>
        <mxCell id="SCAgchY4WZ-3knuSk4E6-200" value="&lt;font style=&quot;font-size: 16px;&quot;&gt;User -&amp;gt; ( Foreign Key )&lt;/font&gt;" style="text;strokeColor=none;fillColor=none;align=left;verticalAlign=middle;spacingLeft=4;spacingRight=4;overflow=hidden;points=[[0,0.5],[1,0.5]];portConstraint=eastwest;rotatable=0;whiteSpace=wrap;html=1;" vertex="1" parent="SCAgchY4WZ-3knuSk4E6-197">
          <mxGeometry y="300" width="200" height="30" as="geometry" />
        </mxCell>
        <mxCell id="SCAgchY4WZ-3knuSk4E6-207" value="&lt;font style=&quot;font-size: 20px;&quot;&gt;&lt;b&gt;Password&lt;/b&gt;&lt;/font&gt;" style="swimlane;fontStyle=0;childLayout=stackLayout;horizontal=1;startSize=50;horizontalStack=0;resizeParent=1;resizeParentMax=0;resizeLast=0;collapsible=1;marginBottom=0;whiteSpace=wrap;html=1;fillColor=#a20025;fontColor=#ffffff;strokeColor=#6F0000;strokeWidth=3;" vertex="1" parent="XSfuh442TB1WO7n0ML1V-28">
          <mxGeometry x="570" y="820" width="180" height="140" as="geometry" />
        </mxCell>
        <mxCell id="SCAgchY4WZ-3knuSk4E6-208" value="&lt;font style=&quot;font-size: 16px;&quot;&gt;ID&lt;/font&gt;" style="text;strokeColor=none;fillColor=none;align=left;verticalAlign=middle;spacingLeft=4;spacingRight=4;overflow=hidden;points=[[0,0.5],[1,0.5]];portConstraint=eastwest;rotatable=0;whiteSpace=wrap;html=1;" vertex="1" parent="SCAgchY4WZ-3knuSk4E6-207">
          <mxGeometry y="50" width="180" height="30" as="geometry" />
        </mxCell>
        <mxCell id="SCAgchY4WZ-3knuSk4E6-209" value="&lt;font style=&quot;font-size: 16px;&quot;&gt;Password&lt;/font&gt;" style="text;strokeColor=none;fillColor=none;align=left;verticalAlign=middle;spacingLeft=4;spacingRight=4;overflow=hidden;points=[[0,0.5],[1,0.5]];portConstraint=eastwest;rotatable=0;whiteSpace=wrap;html=1;" vertex="1" parent="SCAgchY4WZ-3knuSk4E6-207">
          <mxGeometry y="80" width="180" height="30" as="geometry" />
        </mxCell>
        <mxCell id="SCAgchY4WZ-3knuSk4E6-210" value="&lt;font style=&quot;font-size: 16px;&quot;&gt;User -&amp;gt; (OneToOne)&lt;/font&gt;" style="text;strokeColor=none;fillColor=none;align=left;verticalAlign=middle;spacingLeft=4;spacingRight=4;overflow=hidden;points=[[0,0.5],[1,0.5]];portConstraint=eastwest;rotatable=0;whiteSpace=wrap;html=1;" vertex="1" parent="SCAgchY4WZ-3knuSk4E6-207">
          <mxGeometry y="110" width="180" height="30" as="geometry" />
        </mxCell>
        <mxCell id="SCAgchY4WZ-3knuSk4E6-212" style="edgeStyle=orthogonalEdgeStyle;rounded=0;orthogonalLoop=1;jettySize=auto;html=1;exitX=1;exitY=0.5;exitDx=0;exitDy=0;entryX=0;entryY=0.5;entryDx=0;entryDy=0;" edge="1" parent="XSfuh442TB1WO7n0ML1V-28" source="SCAgchY4WZ-3knuSk4E6-58" target="SCAgchY4WZ-3knuSk4E6-76">
          <mxGeometry relative="1" as="geometry" />
        </mxCell>
        <mxCell id="SCAgchY4WZ-3knuSk4E6-213" style="edgeStyle=orthogonalEdgeStyle;rounded=0;orthogonalLoop=1;jettySize=auto;html=1;exitX=1;exitY=0.5;exitDx=0;exitDy=0;entryX=0;entryY=0.5;entryDx=0;entryDy=0;" edge="1" parent="XSfuh442TB1WO7n0ML1V-28" source="SCAgchY4WZ-3knuSk4E6-58" target="SCAgchY4WZ-3knuSk4E6-70">
          <mxGeometry relative="1" as="geometry" />
        </mxCell>
        <mxCell id="SCAgchY4WZ-3knuSk4E6-214" style="edgeStyle=orthogonalEdgeStyle;rounded=0;orthogonalLoop=1;jettySize=auto;html=1;exitX=0;exitY=0.5;exitDx=0;exitDy=0;entryX=0;entryY=0.5;entryDx=0;entryDy=0;" edge="1" parent="XSfuh442TB1WO7n0ML1V-28" source="SCAgchY4WZ-3knuSk4E6-58" target="SCAgchY4WZ-3knuSk4E6-200">
          <mxGeometry relative="1" as="geometry" />
        </mxCell>
        <mxCell id="SCAgchY4WZ-3knuSk4E6-215" style="edgeStyle=orthogonalEdgeStyle;rounded=0;orthogonalLoop=1;jettySize=auto;html=1;exitX=1;exitY=0.5;exitDx=0;exitDy=0;" edge="1" parent="XSfuh442TB1WO7n0ML1V-28" source="SCAgchY4WZ-3knuSk4E6-58" target="SCAgchY4WZ-3knuSk4E6-210">
          <mxGeometry relative="1" as="geometry">
            <Array as="points">
              <mxPoint x="400" y="285" />
              <mxPoint x="400" y="945" />
            </Array>
          </mxGeometry>
        </mxCell>
        <mxCell id="SCAgchY4WZ-3knuSk4E6-216" value="Text" style="edgeLabel;html=1;align=center;verticalAlign=middle;resizable=0;points=[];" vertex="1" connectable="0" parent="SCAgchY4WZ-3knuSk4E6-215">
          <mxGeometry x="-0.6691" y="2" relative="1" as="geometry">
            <mxPoint as="offset" />
          </mxGeometry>
        </mxCell>
        <mxCell id="XSfuh442TB1WO7n0ML1V-29" value="&lt;font style=&quot;&quot;&gt;&lt;font style=&quot;font-size: 36px;&quot;&gt;Basket&lt;/font&gt;&lt;br&gt;&lt;/font&gt;" style="swimlane;whiteSpace=wrap;html=1;startSize=120;fillColor=#60a917;fontColor=#ffffff;strokeColor=#2D7600;strokeWidth=5;" parent="1" vertex="1">
          <mxGeometry x="-520" y="-1370" width="790" height="740" as="geometry" />
        </mxCell>
        <mxCell id="SCAgchY4WZ-3knuSk4E6-175" value="&lt;font style=&quot;font-size: 20px;&quot;&gt;&lt;b&gt;Basket&lt;/b&gt;&lt;/font&gt;" style="swimlane;fontStyle=0;childLayout=stackLayout;horizontal=1;startSize=80;horizontalStack=0;resizeParent=1;resizeParentMax=0;resizeLast=0;collapsible=1;marginBottom=0;whiteSpace=wrap;html=1;fillColor=#a20025;fontColor=#ffffff;strokeColor=#6F0000;strokeWidth=3;" vertex="1" parent="XSfuh442TB1WO7n0ML1V-29">
          <mxGeometry x="40" y="330" width="260" height="290" as="geometry" />
        </mxCell>
        <mxCell id="SCAgchY4WZ-3knuSk4E6-176" value="&lt;font style=&quot;font-size: 16px;&quot;&gt;ID&lt;/font&gt;" style="text;strokeColor=none;fillColor=none;align=left;verticalAlign=middle;spacingLeft=4;spacingRight=4;overflow=hidden;points=[[0,0.5],[1,0.5]];portConstraint=eastwest;rotatable=0;whiteSpace=wrap;html=1;" vertex="1" parent="SCAgchY4WZ-3knuSk4E6-175">
          <mxGeometry y="80" width="260" height="30" as="geometry" />
        </mxCell>
        <mxCell id="SCAgchY4WZ-3knuSk4E6-177" value="&lt;font style=&quot;font-size: 16px;&quot;&gt;Total Price&lt;/font&gt;" style="text;strokeColor=none;fillColor=none;align=left;verticalAlign=middle;spacingLeft=4;spacingRight=4;overflow=hidden;points=[[0,0.5],[1,0.5]];portConstraint=eastwest;rotatable=0;whiteSpace=wrap;html=1;" vertex="1" parent="SCAgchY4WZ-3knuSk4E6-175">
          <mxGeometry y="110" width="260" height="30" as="geometry" />
        </mxCell>
        <mxCell id="SCAgchY4WZ-3knuSk4E6-180" value="&lt;font style=&quot;font-size: 16px;&quot;&gt;Status&lt;/font&gt;" style="text;strokeColor=none;fillColor=none;align=left;verticalAlign=middle;spacingLeft=4;spacingRight=4;overflow=hidden;points=[[0,0.5],[1,0.5]];portConstraint=eastwest;rotatable=0;whiteSpace=wrap;html=1;" vertex="1" parent="SCAgchY4WZ-3knuSk4E6-175">
          <mxGeometry y="140" width="260" height="30" as="geometry" />
        </mxCell>
        <mxCell id="SCAgchY4WZ-3knuSk4E6-179" value="&lt;font style=&quot;font-size: 16px;&quot;&gt;Date&lt;/font&gt;" style="text;strokeColor=none;fillColor=none;align=left;verticalAlign=middle;spacingLeft=4;spacingRight=4;overflow=hidden;points=[[0,0.5],[1,0.5]];portConstraint=eastwest;rotatable=0;whiteSpace=wrap;html=1;" vertex="1" parent="SCAgchY4WZ-3knuSk4E6-175">
          <mxGeometry y="170" width="260" height="30" as="geometry" />
        </mxCell>
        <mxCell id="SCAgchY4WZ-3knuSk4E6-181" value="&lt;font style=&quot;font-size: 16px;&quot;&gt;Off Code -&amp;gt; ( Foreign Key )&amp;nbsp;&lt;/font&gt;" style="text;strokeColor=none;fillColor=none;align=left;verticalAlign=middle;spacingLeft=4;spacingRight=4;overflow=hidden;points=[[0,0.5],[1,0.5]];portConstraint=eastwest;rotatable=0;whiteSpace=wrap;html=1;" vertex="1" parent="SCAgchY4WZ-3knuSk4E6-175">
          <mxGeometry y="200" width="260" height="30" as="geometry" />
        </mxCell>
        <mxCell id="SCAgchY4WZ-3knuSk4E6-187" value="&lt;font style=&quot;font-size: 16px;&quot;&gt;Address -&amp;gt; ( Foreign Key )&amp;nbsp;&lt;/font&gt;" style="text;strokeColor=none;fillColor=none;align=left;verticalAlign=middle;spacingLeft=4;spacingRight=4;overflow=hidden;points=[[0,0.5],[1,0.5]];portConstraint=eastwest;rotatable=0;whiteSpace=wrap;html=1;" vertex="1" parent="SCAgchY4WZ-3knuSk4E6-175">
          <mxGeometry y="230" width="260" height="30" as="geometry" />
        </mxCell>
        <mxCell id="SCAgchY4WZ-3knuSk4E6-182" value="&lt;font style=&quot;font-size: 16px;&quot;&gt;User -&amp;gt; ( Foreign Key )&amp;nbsp;&lt;/font&gt;" style="text;strokeColor=none;fillColor=none;align=left;verticalAlign=middle;spacingLeft=4;spacingRight=4;overflow=hidden;points=[[0,0.5],[1,0.5]];portConstraint=eastwest;rotatable=0;whiteSpace=wrap;html=1;" vertex="1" parent="SCAgchY4WZ-3knuSk4E6-175">
          <mxGeometry y="260" width="260" height="30" as="geometry" />
        </mxCell>
        <mxCell id="SCAgchY4WZ-3knuSk4E6-183" value="&lt;font style=&quot;font-size: 20px;&quot;&gt;&lt;b&gt;Basket Item&lt;/b&gt;&lt;/font&gt;" style="swimlane;fontStyle=0;childLayout=stackLayout;horizontal=1;startSize=80;horizontalStack=0;resizeParent=1;resizeParentMax=0;resizeLast=0;collapsible=1;marginBottom=0;whiteSpace=wrap;html=1;strokeWidth=3;fillColor=#a20025;fontColor=#ffffff;strokeColor=#6F0000;" vertex="1" parent="XSfuh442TB1WO7n0ML1V-29">
          <mxGeometry x="410" y="150" width="280" height="170" as="geometry" />
        </mxCell>
        <mxCell id="SCAgchY4WZ-3knuSk4E6-184" value="&lt;font style=&quot;font-size: 16px;&quot;&gt;ID&lt;/font&gt;" style="text;strokeColor=none;fillColor=none;align=left;verticalAlign=middle;spacingLeft=4;spacingRight=4;overflow=hidden;points=[[0,0.5],[1,0.5]];portConstraint=eastwest;rotatable=0;whiteSpace=wrap;html=1;" vertex="1" parent="SCAgchY4WZ-3knuSk4E6-183">
          <mxGeometry y="80" width="280" height="30" as="geometry" />
        </mxCell>
        <mxCell id="SCAgchY4WZ-3knuSk4E6-185" value="&lt;font style=&quot;font-size: 16px;&quot;&gt;Product Number&lt;/font&gt;" style="text;strokeColor=none;fillColor=none;align=left;verticalAlign=middle;spacingLeft=4;spacingRight=4;overflow=hidden;points=[[0,0.5],[1,0.5]];portConstraint=eastwest;rotatable=0;whiteSpace=wrap;html=1;" vertex="1" parent="SCAgchY4WZ-3knuSk4E6-183">
          <mxGeometry y="110" width="280" height="30" as="geometry" />
        </mxCell>
        <mxCell id="SCAgchY4WZ-3knuSk4E6-186" value="&lt;font style=&quot;font-size: 16px;&quot;&gt;Product -&amp;gt; (ManyToMany )&lt;/font&gt;" style="text;strokeColor=none;fillColor=none;align=left;verticalAlign=middle;spacingLeft=4;spacingRight=4;overflow=hidden;points=[[0,0.5],[1,0.5]];portConstraint=eastwest;rotatable=0;whiteSpace=wrap;html=1;" vertex="1" parent="SCAgchY4WZ-3knuSk4E6-183">
          <mxGeometry y="140" width="280" height="30" as="geometry" />
        </mxCell>
        <mxCell id="SCAgchY4WZ-3knuSk4E6-188" value="&lt;font style=&quot;font-size: 20px;&quot;&gt;&lt;b&gt;Off Code&lt;/b&gt;&lt;/font&gt;" style="swimlane;fontStyle=0;childLayout=stackLayout;horizontal=1;startSize=60;horizontalStack=0;resizeParent=1;resizeParentMax=0;resizeLast=0;collapsible=1;marginBottom=0;whiteSpace=wrap;html=1;fillColor=#a20025;fontColor=#ffffff;strokeColor=#6F0000;strokeWidth=3;" vertex="1" parent="XSfuh442TB1WO7n0ML1V-29">
          <mxGeometry x="430" y="450" width="220" height="240" as="geometry" />
        </mxCell>
        <mxCell id="SCAgchY4WZ-3knuSk4E6-189" value="&lt;font style=&quot;font-size: 16px;&quot;&gt;ID&lt;/font&gt;" style="text;strokeColor=none;fillColor=none;align=left;verticalAlign=middle;spacingLeft=4;spacingRight=4;overflow=hidden;points=[[0,0.5],[1,0.5]];portConstraint=eastwest;rotatable=0;whiteSpace=wrap;html=1;" vertex="1" parent="SCAgchY4WZ-3knuSk4E6-188">
          <mxGeometry y="60" width="220" height="30" as="geometry" />
        </mxCell>
        <mxCell id="SCAgchY4WZ-3knuSk4E6-190" value="&lt;font style=&quot;font-size: 16px;&quot;&gt;Code&lt;/font&gt;" style="text;strokeColor=none;fillColor=none;align=left;verticalAlign=middle;spacingLeft=4;spacingRight=4;overflow=hidden;points=[[0,0.5],[1,0.5]];portConstraint=eastwest;rotatable=0;whiteSpace=wrap;html=1;" vertex="1" parent="SCAgchY4WZ-3knuSk4E6-188">
          <mxGeometry y="90" width="220" height="30" as="geometry" />
        </mxCell>
        <mxCell id="SCAgchY4WZ-3knuSk4E6-194" value="&lt;font style=&quot;font-size: 16px;&quot;&gt;Percentage&lt;/font&gt;" style="text;strokeColor=none;fillColor=none;align=left;verticalAlign=middle;spacingLeft=4;spacingRight=4;overflow=hidden;points=[[0,0.5],[1,0.5]];portConstraint=eastwest;rotatable=0;whiteSpace=wrap;html=1;" vertex="1" parent="SCAgchY4WZ-3knuSk4E6-188">
          <mxGeometry y="120" width="220" height="30" as="geometry" />
        </mxCell>
        <mxCell id="SCAgchY4WZ-3knuSk4E6-195" value="&lt;span style=&quot;font-size: 16px;&quot;&gt;Multiple Used&lt;/span&gt;" style="text;strokeColor=none;fillColor=none;align=left;verticalAlign=middle;spacingLeft=4;spacingRight=4;overflow=hidden;points=[[0,0.5],[1,0.5]];portConstraint=eastwest;rotatable=0;whiteSpace=wrap;html=1;" vertex="1" parent="SCAgchY4WZ-3knuSk4E6-188">
          <mxGeometry y="150" width="220" height="30" as="geometry" />
        </mxCell>
        <mxCell id="SCAgchY4WZ-3knuSk4E6-196" value="&lt;span style=&quot;font-size: 16px;&quot;&gt;Used Status&lt;/span&gt;" style="text;strokeColor=none;fillColor=none;align=left;verticalAlign=middle;spacingLeft=4;spacingRight=4;overflow=hidden;points=[[0,0.5],[1,0.5]];portConstraint=eastwest;rotatable=0;whiteSpace=wrap;html=1;" vertex="1" parent="SCAgchY4WZ-3knuSk4E6-188">
          <mxGeometry y="180" width="220" height="30" as="geometry" />
        </mxCell>
        <mxCell id="SCAgchY4WZ-3knuSk4E6-191" value="&lt;span style=&quot;font-size: 16px;&quot;&gt;Expire Date&lt;/span&gt;" style="text;strokeColor=none;fillColor=none;align=left;verticalAlign=middle;spacingLeft=4;spacingRight=4;overflow=hidden;points=[[0,0.5],[1,0.5]];portConstraint=eastwest;rotatable=0;whiteSpace=wrap;html=1;" vertex="1" parent="SCAgchY4WZ-3knuSk4E6-188">
          <mxGeometry y="210" width="220" height="30" as="geometry" />
        </mxCell>
        <mxCell id="SCAgchY4WZ-3knuSk4E6-225" style="edgeStyle=orthogonalEdgeStyle;rounded=0;orthogonalLoop=1;jettySize=auto;html=1;exitX=0;exitY=0.5;exitDx=0;exitDy=0;entryX=1;entryY=0.5;entryDx=0;entryDy=0;" edge="1" parent="XSfuh442TB1WO7n0ML1V-29" source="SCAgchY4WZ-3knuSk4E6-189" target="SCAgchY4WZ-3knuSk4E6-181">
          <mxGeometry relative="1" as="geometry" />
        </mxCell>
        <mxCell id="XSfuh442TB1WO7n0ML1V-30" value="&lt;font style=&quot;font-size: 36px;&quot;&gt;Category&lt;/font&gt;" style="swimlane;whiteSpace=wrap;html=1;startSize=120;fillColor=#60a917;fontColor=#ffffff;strokeColor=#2D7600;strokeWidth=5;" parent="1" vertex="1">
          <mxGeometry x="430" y="-1340" width="750" height="740" as="geometry" />
        </mxCell>
        <mxCell id="SCAgchY4WZ-3knuSk4E6-165" value="&lt;font style=&quot;font-size: 20px;&quot;&gt;&lt;b&gt;Category Root&lt;/b&gt;&lt;/font&gt;" style="swimlane;fontStyle=0;childLayout=stackLayout;horizontal=1;startSize=90;horizontalStack=0;resizeParent=1;resizeParentMax=0;resizeLast=0;collapsible=1;marginBottom=0;whiteSpace=wrap;html=1;fillColor=#a20025;fontColor=#ffffff;strokeColor=#6F0000;strokeWidth=3;" vertex="1" parent="XSfuh442TB1WO7n0ML1V-30">
          <mxGeometry x="130" y="480" width="290" height="180" as="geometry" />
        </mxCell>
        <mxCell id="SCAgchY4WZ-3knuSk4E6-166" value="&lt;font style=&quot;font-size: 16px;&quot;&gt;ID&lt;/font&gt;" style="text;strokeColor=none;fillColor=none;align=left;verticalAlign=middle;spacingLeft=4;spacingRight=4;overflow=hidden;points=[[0,0.5],[1,0.5]];portConstraint=eastwest;rotatable=0;whiteSpace=wrap;html=1;" vertex="1" parent="SCAgchY4WZ-3knuSk4E6-165">
          <mxGeometry y="90" width="290" height="30" as="geometry" />
        </mxCell>
        <mxCell id="SCAgchY4WZ-3knuSk4E6-167" value="&lt;font style=&quot;font-size: 16px;&quot;&gt;Title&lt;/font&gt;" style="text;strokeColor=none;fillColor=none;align=left;verticalAlign=middle;spacingLeft=4;spacingRight=4;overflow=hidden;points=[[0,0.5],[1,0.5]];portConstraint=eastwest;rotatable=0;whiteSpace=wrap;html=1;" vertex="1" parent="SCAgchY4WZ-3knuSk4E6-165">
          <mxGeometry y="120" width="290" height="30" as="geometry" />
        </mxCell>
        <mxCell id="SCAgchY4WZ-3knuSk4E6-168" value="&lt;font style=&quot;font-size: 16px;&quot;&gt;Visualize Status&lt;/font&gt;" style="text;strokeColor=none;fillColor=none;align=left;verticalAlign=middle;spacingLeft=4;spacingRight=4;overflow=hidden;points=[[0,0.5],[1,0.5]];portConstraint=eastwest;rotatable=0;whiteSpace=wrap;html=1;" vertex="1" parent="SCAgchY4WZ-3knuSk4E6-165">
          <mxGeometry y="150" width="290" height="30" as="geometry" />
        </mxCell>
        <mxCell id="SCAgchY4WZ-3knuSk4E6-169" value="&lt;font size=&quot;1&quot; style=&quot;&quot;&gt;&lt;b style=&quot;font-size: 20px;&quot;&gt;SubRoot&lt;/b&gt;&lt;/font&gt;" style="swimlane;fontStyle=0;childLayout=stackLayout;horizontal=1;startSize=80;horizontalStack=0;resizeParent=1;resizeParentMax=0;resizeLast=0;collapsible=1;marginBottom=0;whiteSpace=wrap;html=1;fillColor=#a20025;fontColor=#ffffff;strokeColor=#6F0000;" vertex="1" parent="XSfuh442TB1WO7n0ML1V-30">
          <mxGeometry x="490" y="300" width="200" height="170" as="geometry" />
        </mxCell>
        <mxCell id="SCAgchY4WZ-3knuSk4E6-170" value="&lt;font style=&quot;font-size: 16px;&quot;&gt;ID&lt;/font&gt;" style="text;strokeColor=none;fillColor=none;align=left;verticalAlign=middle;spacingLeft=4;spacingRight=4;overflow=hidden;points=[[0,0.5],[1,0.5]];portConstraint=eastwest;rotatable=0;whiteSpace=wrap;html=1;" vertex="1" parent="SCAgchY4WZ-3knuSk4E6-169">
          <mxGeometry y="80" width="200" height="30" as="geometry" />
        </mxCell>
        <mxCell id="SCAgchY4WZ-3knuSk4E6-171" value="&lt;font style=&quot;font-size: 16px;&quot;&gt;Title&lt;/font&gt;" style="text;strokeColor=none;fillColor=none;align=left;verticalAlign=middle;spacingLeft=4;spacingRight=4;overflow=hidden;points=[[0,0.5],[1,0.5]];portConstraint=eastwest;rotatable=0;whiteSpace=wrap;html=1;" vertex="1" parent="SCAgchY4WZ-3knuSk4E6-169">
          <mxGeometry y="110" width="200" height="30" as="geometry" />
        </mxCell>
        <mxCell id="SCAgchY4WZ-3knuSk4E6-172" value="&lt;font style=&quot;font-size: 16px;&quot;&gt;Visualize Status&lt;/font&gt;" style="text;strokeColor=none;fillColor=none;align=left;verticalAlign=middle;spacingLeft=4;spacingRight=4;overflow=hidden;points=[[0,0.5],[1,0.5]];portConstraint=eastwest;rotatable=0;whiteSpace=wrap;html=1;" vertex="1" parent="SCAgchY4WZ-3knuSk4E6-169">
          <mxGeometry y="140" width="200" height="30" as="geometry" />
        </mxCell>
        <mxCell id="SCAgchY4WZ-3knuSk4E6-217" style="edgeStyle=orthogonalEdgeStyle;rounded=0;orthogonalLoop=1;jettySize=auto;html=1;exitX=0;exitY=0.5;exitDx=0;exitDy=0;entryX=1;entryY=0.5;entryDx=0;entryDy=0;" edge="1" parent="1" source="SCAgchY4WZ-3knuSk4E6-78" target="SCAgchY4WZ-3knuSk4E6-69">
          <mxGeometry relative="1" as="geometry" />
        </mxCell>
        <mxCell id="SCAgchY4WZ-3knuSk4E6-220" style="edgeStyle=orthogonalEdgeStyle;rounded=0;orthogonalLoop=1;jettySize=auto;html=1;exitX=0;exitY=0.5;exitDx=0;exitDy=0;entryX=1;entryY=0.5;entryDx=0;entryDy=0;" edge="1" parent="1" source="SCAgchY4WZ-3knuSk4E6-166" target="SCAgchY4WZ-3knuSk4E6-174">
          <mxGeometry relative="1" as="geometry" />
        </mxCell>
        <mxCell id="SCAgchY4WZ-3knuSk4E6-221" style="edgeStyle=orthogonalEdgeStyle;rounded=0;orthogonalLoop=1;jettySize=auto;html=1;exitX=0;exitY=0.5;exitDx=0;exitDy=0;entryX=1;entryY=0.5;entryDx=0;entryDy=0;" edge="1" parent="1" source="SCAgchY4WZ-3knuSk4E6-170" target="SCAgchY4WZ-3knuSk4E6-84">
          <mxGeometry relative="1" as="geometry" />
        </mxCell>
        <mxCell id="SCAgchY4WZ-3knuSk4E6-224" style="edgeStyle=orthogonalEdgeStyle;rounded=0;orthogonalLoop=1;jettySize=auto;html=1;exitX=0;exitY=0.5;exitDx=0;exitDy=0;entryX=0;entryY=0.5;entryDx=0;entryDy=0;" edge="1" parent="1" source="SCAgchY4WZ-3knuSk4E6-78" target="SCAgchY4WZ-3knuSk4E6-186">
          <mxGeometry relative="1" as="geometry" />
        </mxCell>
        <mxCell id="SCAgchY4WZ-3knuSk4E6-226" style="edgeStyle=orthogonalEdgeStyle;rounded=0;orthogonalLoop=1;jettySize=auto;html=1;exitX=0;exitY=0.5;exitDx=0;exitDy=0;entryX=0;entryY=0.5;entryDx=0;entryDy=0;" edge="1" parent="1" source="SCAgchY4WZ-3knuSk4E6-58" target="SCAgchY4WZ-3knuSk4E6-182">
          <mxGeometry relative="1" as="geometry" />
        </mxCell>
        <mxCell id="SCAgchY4WZ-3knuSk4E6-227" style="edgeStyle=orthogonalEdgeStyle;rounded=0;orthogonalLoop=1;jettySize=auto;html=1;exitX=0;exitY=0.5;exitDx=0;exitDy=0;entryX=0;entryY=0.5;entryDx=0;entryDy=0;" edge="1" parent="1" source="SCAgchY4WZ-3knuSk4E6-198" target="SCAgchY4WZ-3knuSk4E6-187">
          <mxGeometry relative="1" as="geometry" />
        </mxCell>
      </root>
    </mxGraphModel>
  </diagram>
</mxfile>
